# xmcd CD database file
#
# Track frame offsets:
#	150
#	18667
#	33165
#	44696
#	62815
#	77499
#	89239
#	102099
#	116841
#	131228
#	146648
#	158670
#	185477
#	202028
#
# Disc length: 2845 seconds
#
# Revision: 0
# Processed by: cddbd v1.5.2PL0 Copyright (c) Steve Scherf et al.
# Submitted via: CDex 1.40Beta8
#
DISCID=cc0b1b0e
DTITLE=Charles Brown - An Introduction To Charles Brown
DYEAR=2007
DGENRE=Blues
TTITLE0=For You
TTITLE1=When Did You Leave Heaven
TTITLE2=I Don't Know
TTITLE3=Driftin' Blues
TTITLE4=Graveyard Song
TTITLE5=Trouble Blues
TTITLE6=Jilted
TTITLE7=Changeable Woman Blues
TTITLE8=Black Night
TTITLE9=Falling In Love
TTITLE10=Moonlight And Shadows
TTITLE11=I Stepped In Quicksand
TTITLE12=Merry Christmas Baby
TTITLE13=Please Come Home For Christmas
EXTD=YEAR: 2007 ID3G: 0
EXTT0=
EXTT1=
EXTT2=
EXTT3=
EXTT4=
EXTT5=
EXTT6=
EXTT7=
EXTT8=
EXTT9=
EXTT10=
EXTT11=
EXTT12=
EXTT13=
PLAYORDER=
